<svg id="Capa_1" data-name="Capa 1" xmlns="http://www.w3.org/2000/svg" viewBox="0 0 285.88 141.52"><defs><style>.cls-1{fill:#fff;}</style></defs><title>logo-persiscal-pymes</title><path class="cls-1" d="M330.32,324.77q2.28,2.21,6.55,2.21a9,9,0,0,0,5.27-1.53,6.34,6.34,0,0,0,2.7-3.24h8.9q-2.14,6.62-6.55,9.47a19.27,19.27,0,0,1-10.67,2.85,21,21,0,0,1-7.83-1.39,16.28,16.28,0,0,1-5.91-4,17.76,17.76,0,0,1-3.74-6.12,22.39,22.39,0,0,1-1.32-7.83,21.45,21.45,0,0,1,1.35-7.69,17.79,17.79,0,0,1,9.79-10.25,19.07,19.07,0,0,1,7.65-1.49,17.49,17.49,0,0,1,8.18,1.81,16.34,16.34,0,0,1,5.73,4.87,20,20,0,0,1,3.24,7,26,26,0,0,1,.71,8.18H327.83Q328,322.56,330.32,324.77Zm11.42-19.36q-1.81-2-5.52-2a8.79,8.79,0,0,0-4,.82,7.67,7.67,0,0,0-2.56,2,7.45,7.45,0,0,0-1.35,2.56,11.57,11.57,0,0,0-.46,2.42h16.44A11.69,11.69,0,0,0,341.74,305.41Z" transform="translate(-278.34 -226.57)"/><path class="cls-1" d="M370,296.8v6.83h.14a12.42,12.42,0,0,1,1.92-3.17A12.66,12.66,0,0,1,374.8,298a13.58,13.58,0,0,1,3.34-1.6,12.08,12.08,0,0,1,3.7-.57,7.89,7.89,0,0,1,2.21.36v9.39q-.71-.14-1.71-.25a18.13,18.13,0,0,0-1.92-.11,10.77,10.77,0,0,0-4.7.93,8.14,8.14,0,0,0-3.1,2.53,10.12,10.12,0,0,0-1.67,3.74,20.31,20.31,0,0,0-.5,4.63v16.58H360.35V296.8Z" transform="translate(-278.34 -226.57)"/><path class="cls-1" d="M396.54,324.45a5.91,5.91,0,0,0,1.74,1.92,7.45,7.45,0,0,0,2.46,1.1,11.46,11.46,0,0,0,2.88.36,10.78,10.78,0,0,0,2.24-.25,7.59,7.59,0,0,0,2.13-.78,4.86,4.86,0,0,0,1.6-1.42,3.74,3.74,0,0,0,.64-2.24q0-2.28-3-3.42a60.6,60.6,0,0,0-8.43-2.28q-2.21-.5-4.31-1.17a14.66,14.66,0,0,1-3.74-1.78,8.63,8.63,0,0,1-2.63-2.77,7.86,7.86,0,0,1-1-4.09,11.07,11.07,0,0,1,1.39-5.84,10.24,10.24,0,0,1,3.67-3.59,16.07,16.07,0,0,1,5.12-1.85,31.61,31.61,0,0,1,5.84-.53,29.2,29.2,0,0,1,5.8.57,15.38,15.38,0,0,1,5,1.92,11.53,11.53,0,0,1,3.67,3.59,12.09,12.09,0,0,1,1.74,5.66h-9.61a4.42,4.42,0,0,0-2.21-3.95,10.09,10.09,0,0,0-4.7-1,17.39,17.39,0,0,0-1.85.11,6.2,6.2,0,0,0-1.82.46,3.74,3.74,0,0,0-1.39,1,2.72,2.72,0,0,0-.57,1.81,2.77,2.77,0,0,0,1,2.21,7.68,7.68,0,0,0,2.6,1.39,32.47,32.47,0,0,0,3.67,1q2.06.43,4.2.93a43.2,43.2,0,0,1,4.31,1.21,14.25,14.25,0,0,1,3.74,1.89,9.12,9.12,0,0,1,2.63,2.92,8.56,8.56,0,0,1,1,4.3,11.18,11.18,0,0,1-5.27,10,15.6,15.6,0,0,1-5.37,2.1,31.34,31.34,0,0,1-6.16.6,30.48,30.48,0,0,1-6.26-.64,16.54,16.54,0,0,1-5.44-2.13,12.2,12.2,0,0,1-3.92-4,12.36,12.36,0,0,1-1.67-6.16h9.61A5.53,5.53,0,0,0,396.54,324.45Z" transform="translate(-278.34 -226.57)"/><path class="cls-1" d="M426.54,291.1v-8.33h10.11v8.33Zm10.11,5.69v36.79H426.54V296.8Z" transform="translate(-278.34 -226.57)"/><path class="cls-1" d="M506.41,301.92a9.77,9.77,0,0,0-7-2.35,11.34,11.34,0,0,0-5.62,1.35,12.36,12.36,0,0,0-4,3.56,16.16,16.16,0,0,0-2.42,5,20.47,20.47,0,0,0,0,11.46,16.13,16.13,0,0,0,2.42,5,12.33,12.33,0,0,0,4,3.56,11.33,11.33,0,0,0,5.62,1.35,9.93,9.93,0,0,0,3.91-.78,10.51,10.51,0,0,0,3.27-2.17,11.62,11.62,0,0,0,2.35-3.31,12.25,12.25,0,0,0,1.14-4.2h4.48q-.93,6.69-4.91,10.43a14.39,14.39,0,0,1-10.25,3.74,17.22,17.22,0,0,1-7.44-1.53,15.79,15.79,0,0,1-5.44-4.16,18.17,18.17,0,0,1-3.35-6.16,25.34,25.34,0,0,1,0-15,18.17,18.17,0,0,1,3.35-6.16,16.18,16.18,0,0,1,5.44-4.2,16.89,16.89,0,0,1,7.44-1.57,16,16,0,0,1,10,3.13q4.09,3.13,4.88,9.47h-4.48A12.34,12.34,0,0,0,506.41,301.92Z" transform="translate(-278.34 -226.57)"/><path class="cls-1" d="M521.78,302.56a10.52,10.52,0,0,1,3.1-3.84,13.11,13.11,0,0,1,4.59-2.21,22.37,22.37,0,0,1,5.83-.71,25.73,25.73,0,0,1,4.84.46,11.71,11.71,0,0,1,4.34,1.74,9.49,9.49,0,0,1,3.13,3.59,13,13,0,0,1,1.21,6v19.5q0,2.7,2.63,2.7a3.47,3.47,0,0,0,1.42-.28v3.77q-.78.14-1.39.21a13.47,13.47,0,0,1-1.53.07,6.8,6.8,0,0,1-2.74-.46,3.68,3.68,0,0,1-1.6-1.32,4.92,4.92,0,0,1-.75-2,17.28,17.28,0,0,1-.18-2.6h-.14a30.16,30.16,0,0,1-2.46,3.17,12.17,12.17,0,0,1-2.78,2.31,12.83,12.83,0,0,1-3.49,1.42,19.14,19.14,0,0,1-4.66.5,18.48,18.48,0,0,1-4.8-.6,10.76,10.76,0,0,1-3.91-1.92,9.17,9.17,0,0,1-2.63-3.34,11.13,11.13,0,0,1-1-4.8,9.49,9.49,0,0,1,1.71-6,10.74,10.74,0,0,1,4.52-3.31,25.89,25.89,0,0,1,6.33-1.6q3.52-.46,7.15-.89,1.42-.14,2.49-.36a4.34,4.34,0,0,0,1.78-.75,3.46,3.46,0,0,0,1.1-1.46,6.3,6.3,0,0,0,.39-2.42,8.19,8.19,0,0,0-.75-3.74,5.91,5.91,0,0,0-2.06-2.31,8.32,8.32,0,0,0-3.06-1.17,20.7,20.7,0,0,0-3.74-.32,11.32,11.32,0,0,0-7,2q-2.7,2-2.85,6.51h-4.48A15,15,0,0,1,521.78,302.56Zm22.42,11a2.57,2.57,0,0,1-1.64,1.14,16.48,16.48,0,0,1-2.13.5q-2.85.5-5.87.89a32.4,32.4,0,0,0-5.52,1.17,10.8,10.8,0,0,0-4.09,2.24,5.35,5.35,0,0,0-1.6,4.16,6.52,6.52,0,0,0,.68,3,7.29,7.29,0,0,0,1.81,2.28,7.93,7.93,0,0,0,2.63,1.46,9.62,9.62,0,0,0,3.06.5,15.4,15.4,0,0,0,4.91-.78,12.1,12.1,0,0,0,4.09-2.28,11.1,11.1,0,0,0,2.78-3.63,11,11,0,0,0,1-4.84v-5.84Z" transform="translate(-278.34 -226.57)"/><path class="cls-1" d="M562.35,282.78v50.81h-4.49V282.78Z" transform="translate(-278.34 -226.57)"/><path class="cls-1" d="M475.31,318.91a9.52,9.52,0,0,0-2.79-3.05,15,15,0,0,0-4-1.95,47.47,47.47,0,0,0-4.6-1.25q-2.21-.51-4.41-1a25.34,25.34,0,0,1-4-1.18,9.11,9.11,0,0,1-2.9-1.77,3.52,3.52,0,0,1-1.14-2.68,3.71,3.71,0,0,1,.74-2.39,5.25,5.25,0,0,1,1.91-1.47,9.56,9.56,0,0,1,2.61-.77,18.52,18.52,0,0,1,2.83-.22,14.21,14.21,0,0,1,3.05.33,9.38,9.38,0,0,1,2.76,1.07,6.24,6.24,0,0,1,2.06,1.95,6.33,6.33,0,0,1,1,3.05l3.12,3.13,3.11-3.13s-.61-4.23-1.44-5.77a9.9,9.9,0,0,0-3.35-3.68,13.77,13.77,0,0,0-4.82-1.91,30.09,30.09,0,0,0-6-.55,21,21,0,0,0-5,.62,15.23,15.23,0,0,0-4.56,1.91,10.53,10.53,0,0,0-3.31,3.35,9.11,9.11,0,0,0-1.29,4.93,8.3,8.3,0,0,0,1.84,5.74,12.39,12.39,0,0,0,4.6,3.2,31,31,0,0,0,6,1.76q3.23.63,6,1.4a15.69,15.69,0,0,1,4.6,2,4.17,4.17,0,0,1,1.84,3.68,4.61,4.61,0,0,1-.88,2.9,5.58,5.58,0,0,1-2.24,1.73,11.31,11.31,0,0,1-3,.81,22.91,22.91,0,0,1-3.09.22,18.48,18.48,0,0,1-3.71-.37,10.41,10.41,0,0,1-3.24-1.21,6.65,6.65,0,0,1-2.32-2.28,7,7,0,0,1-1-3.49h0l-3.12-3.12-3.12,3.12h0a13.76,13.76,0,0,0,1.47,6,11,11,0,0,0,3.53,4,14.82,14.82,0,0,0,5.07,2.17,26.7,26.7,0,0,0,6,.66,31,31,0,0,0,5.77-.55,15.69,15.69,0,0,0,5.22-1.95,11.2,11.2,0,0,0,3.75-3.68,10.59,10.59,0,0,0,1.43-5.74A9,9,0,0,0,475.31,318.91Z" transform="translate(-278.34 -226.57)"/><path class="cls-1" d="M297.24,282.78a18.89,18.89,0,0,0-18.89,18.89v31.92h10.11v-13h8.79a18.89,18.89,0,1,0,0-37.79Zm.55,27.67v0h-9.29v-8.79a8.79,8.79,0,1,1,9.29,8.77Z" transform="translate(-278.34 -226.57)"/><path class="cls-1" d="M446.45,367.52V343.11h11a8.5,8.5,0,0,1,6.5,2.43,7.67,7.67,0,0,1,1.95,5.4,7.75,7.75,0,0,1-1.91,5.4q-2.22,2.43-6.53,2.43h-5.64v8.75Zm5.37-20.24v7.32H456a6.56,6.56,0,0,0,3.28-.65,3.16,3.16,0,0,0,1.44-3,3.2,3.2,0,0,0-1.4-3,6.61,6.61,0,0,0-3.32-.68Z" transform="translate(-278.34 -226.57)"/><path class="cls-1" d="M475.58,367.52V358l-9-14.9h6.05l5.71,9.64,5.67-9.64h6l-9.06,15v9.37Z" transform="translate(-278.34 -226.57)"/><path class="cls-1" d="M492.05,367.52V343.11h7.56l5.71,16.78,5.47-16.78h7.55v24.41h-5v-17.3l-6.05,17.3h-4.14l-6-17.13-.07,17.13Z" transform="translate(-278.34 -226.57)"/><path class="cls-1" d="M523.06,367.52V343.11h18.25v4.51H528.43v5.23h11.83V357H528.43v6h13.16v4.51Z" transform="translate(-278.34 -226.57)"/><path class="cls-1" d="M543.67,359.42h5.2a4,4,0,0,0,1.61,3.45,6.34,6.34,0,0,0,3.79,1.06,6.91,6.91,0,0,0,3.08-.58,2.59,2.59,0,0,0,1.67-2.46q0-1.64-2.26-2.63-.38-.17-4.84-1.35t-6.07-3a5.87,5.87,0,0,1-1.37-4,6.52,6.52,0,0,1,2.91-5.57,10.6,10.6,0,0,1,6.22-1.81,15.09,15.09,0,0,1,3.79.45,9.08,9.08,0,0,1,3,1.37,6.88,6.88,0,0,1,3,6.05h-5.2a3.34,3.34,0,0,0-1.44-2.94,6.48,6.48,0,0,0-3.38-.75,5,5,0,0,0-2.58.65,2.27,2.27,0,0,0-1.11,2.12q0,1.5,2.26,2.32l5,1.37a11.7,11.7,0,0,1,5.4,2.53,6.15,6.15,0,0,1,1.85,4.58,7,7,0,0,1-2.63,5.66q-2.63,2.17-7.52,2.17a11.86,11.86,0,0,1-7.21-2.08A7.74,7.74,0,0,1,543.67,359.42Z" transform="translate(-278.34 -226.57)"/><path class="cls-1" d="M528.31,243H530a5.07,5.07,0,0,1,5.07,5.07v8a1.48,1.48,0,0,1-.68,1.25,2,2,0,0,0-.93,1.73v7.67a2.43,2.43,0,0,0,1.37,2.2,60.34,60.34,0,0,1,10.92,7,1.77,1.77,0,0,1,.63,1.37v5.47h4.18v-5.47a5.9,5.9,0,0,0-2.18-4.6,64.31,64.31,0,0,0-10.77-7V260a5.68,5.68,0,0,0,1.61-3.95v-8a9.26,9.26,0,0,0-9.25-9.25h-1.71a9.26,9.26,0,0,0-9.25,9.25v8a5.68,5.68,0,0,0,1.61,3.95v2.72h4.18v-3.68a2.1,2.1,0,0,0-.93-1.73,1.48,1.48,0,0,1-.68-1.25v-8A5.09,5.09,0,0,1,528.31,243Z" transform="translate(-278.34 -226.57)"/><path class="cls-1" d="M449.22,272.72a6,6,0,0,0-2.18,4.6v5.45h4.18v-5.45a1.8,1.8,0,0,1,.63-1.37,61.64,61.64,0,0,1,10.92-7,2.43,2.43,0,0,0,1.37-2.2v-7.67a2.1,2.1,0,0,0-.93-1.73,1.48,1.48,0,0,1-.68-1.25v-8a5.07,5.07,0,0,1,5.07-5.07h1.71a5.07,5.07,0,0,1,5.07,5.07v8a1.48,1.48,0,0,1-.68,1.25,2,2,0,0,0-.93,1.73v3.84H477v-2.87a5.68,5.68,0,0,0,1.61-3.95v-8a9.26,9.26,0,0,0-9.25-9.25h-1.71a9.26,9.26,0,0,0-9.25,9.25v8a5.68,5.68,0,0,0,1.61,3.95v5.64A66.67,66.67,0,0,0,449.22,272.72Z" transform="translate(-278.34 -226.57)"/><path class="cls-1" d="M526.05,282.78v-7.05a7,7,0,0,0-2.58-5.47A82.82,82.82,0,0,0,509.33,261V253.1a6.74,6.74,0,0,0,2.07-4.86V237.94A11.38,11.38,0,0,0,500,226.57h-2.22a11.38,11.38,0,0,0-11.36,11.36v10.31a6.74,6.74,0,0,0,2.07,4.86V261a82.82,82.82,0,0,0-14.15,9.21,7,7,0,0,0-2.58,5.47v7.05H476v-7.05a2.88,2.88,0,0,1,1.06-2.24,79.78,79.78,0,0,1,14.26-9.15,2.52,2.52,0,0,0,1.44-2.28v-9.93a2.1,2.1,0,0,0-.93-1.73,2.55,2.55,0,0,1-1.14-2.13V238a7.19,7.19,0,0,1,7.18-7.18h2.22a7.19,7.19,0,0,1,7.18,7.18v10.31a2.58,2.58,0,0,1-1.14,2.13,2,2,0,0,0-.93,1.73v9.93a2.57,2.57,0,0,0,1.44,2.3,79.78,79.78,0,0,1,14.26,9.15,2.88,2.88,0,0,1,1.06,2.24v7Z" transform="translate(-278.34 -226.57)"/></svg>