<svg id="Capa_1" data-name="Capa 1" xmlns="http://www.w3.org/2000/svg" viewBox="0 0 522.5 141.78"><defs><style>.cls-1{fill:#fff;}.cls-2{isolation:isolate;}.cls-3{fill:none;stroke:#fff;stroke-miterlimit:10;stroke-width:2.16px;}</style></defs><title>logo-persiscal-blanco</title><path class="cls-1" d="M126.8,94c2.8,2.7,6.8,4.1,12,4.1a16.32,16.32,0,0,0,9.7-2.8c2.7-1.9,4.4-3.9,5-6h16.4q-3.9,12.15-12,17.4c-5.4,3.5-12,5.2-19.6,5.2a38.87,38.87,0,0,1-14.4-2.6A29.49,29.49,0,0,1,113,102a31.55,31.55,0,0,1-6.9-11.3,41.84,41.84,0,0,1-2.4-14.4,38,38,0,0,1,2.5-14.1,32.86,32.86,0,0,1,18-18.8,35.45,35.45,0,0,1,14.1-2.7A32.64,32.64,0,0,1,153.4,44a28.68,28.68,0,0,1,10.5,9,37.69,37.69,0,0,1,6,12.8,47.07,47.07,0,0,1,1.3,15.1H122.4C122.5,86.9,124,91.3,126.8,94Zm21-35.6c-2.2-2.4-5.6-3.7-10.1-3.7a16.25,16.25,0,0,0-7.4,1.5,13.58,13.58,0,0,0-4.7,3.7,14.31,14.31,0,0,0-2.5,4.7,21,21,0,0,0-.9,4.5h30.2C151.6,64.4,150,60.8,147.8,58.4Z" transform="translate(-31.1 -16.7)"/><path class="cls-1" d="M199.7,42.5V55.1h.3a23,23,0,0,1,3.5-5.8,24.72,24.72,0,0,1,5.1-4.6,23.41,23.41,0,0,1,6.2-2.9,22.4,22.4,0,0,1,6.8-1,13.06,13.06,0,0,1,4.1.7V58.8c-.9-.2-1.9-.3-3.1-.5s-2.4-.2-3.5-.2a20,20,0,0,0-8.6,1.7,14.52,14.52,0,0,0-5.7,4.6,19.72,19.72,0,0,0-3.1,6.9,38.21,38.21,0,0,0-.9,8.5v30.5H182V42.5Z" transform="translate(-31.1 -16.7)"/><path class="cls-1" d="M248.6,93.4a10.74,10.74,0,0,0,3.2,3.5,13.16,13.16,0,0,0,4.5,2,23.33,23.33,0,0,0,5.3.7,20,20,0,0,0,4.1-.5,16.42,16.42,0,0,0,3.9-1.4,8.12,8.12,0,0,0,2.9-2.6,6.86,6.86,0,0,0,1.2-4.1c0-2.8-1.9-4.9-5.6-6.3a111.55,111.55,0,0,0-15.5-4.2,71,71,0,0,1-7.9-2.2,24.5,24.5,0,0,1-6.9-3.3,16.64,16.64,0,0,1-4.8-5.1,14.87,14.87,0,0,1-1.8-7.5c0-4.4.8-7.9,2.6-10.7a18.43,18.43,0,0,1,6.7-6.6,30.9,30.9,0,0,1,9.4-3.4,54.64,54.64,0,0,1,10.7-1,53.93,53.93,0,0,1,10.7,1,29.81,29.81,0,0,1,9.2,3.5,21.11,21.11,0,0,1,6.7,6.6,21.65,21.65,0,0,1,3.2,10.4H272.7c-.3-3.6-1.6-6-4.1-7.3A17.9,17.9,0,0,0,260,53c-1,0-2.2.1-3.4.2a9,9,0,0,0-3.3.9,7,7,0,0,0-2.6,1.9,4.83,4.83,0,0,0-1,3.3,5.24,5.24,0,0,0,1.8,4.1,15.44,15.44,0,0,0,4.8,2.6c2,.7,4.2,1.2,6.7,1.8s5.1,1.1,7.7,1.7,5.3,1.4,7.9,2.2a24.88,24.88,0,0,1,6.9,3.5,15.62,15.62,0,0,1,4.8,5.4,15.91,15.91,0,0,1,1.8,7.9,21.36,21.36,0,0,1-2.7,11.2,22.21,22.21,0,0,1-7,7.3,31.05,31.05,0,0,1-9.9,3.9,61,61,0,0,1-11.3,1.1,54.73,54.73,0,0,1-11.5-1.2,30.71,30.71,0,0,1-10-3.9,21.75,21.75,0,0,1-10.3-18.6h17.7A16,16,0,0,0,248.6,93.4Z" transform="translate(-31.1 -16.7)"/><path class="cls-1" d="M303.8,32V16.7h18.6V32Zm18.6,10.5v67.7H303.8V42.5Z" transform="translate(-31.1 -16.7)"/><path class="cls-1" d="M450.7,51.9c-3.1-2.9-7.3-4.3-12.8-4.3a20.16,20.16,0,0,0-10.3,2.5,23.18,23.18,0,0,0-7.4,6.5,31.53,31.53,0,0,0-4.5,9.2,37.5,37.5,0,0,0,0,21,29.21,29.21,0,0,0,4.5,9.2,22,22,0,0,0,7.4,6.5,20.41,20.41,0,0,0,10.3,2.5,19.63,19.63,0,0,0,7.2-1.4,19.11,19.11,0,0,0,6-4,20.93,20.93,0,0,0,4.3-6.1,24.37,24.37,0,0,0,2.1-7.7h8.2q-1.65,12.3-9,19.2t-18.9,6.9a31.35,31.35,0,0,1-13.7-2.8,28.26,28.26,0,0,1-10-7.7,33.48,33.48,0,0,1-6.2-11.3,46.39,46.39,0,0,1,0-27.6,31.85,31.85,0,0,1,6.2-11.3,29.46,29.46,0,0,1,10-7.7,31.36,31.36,0,0,1,13.7-2.9c7.2,0,13.4,1.9,18.4,5.8s8,9.6,9,17.4H457A22.44,22.44,0,0,0,450.7,51.9Z" transform="translate(-31.1 -16.7)"/><path class="cls-1" d="M479,53.1a19.92,19.92,0,0,1,5.7-7.1,25.31,25.31,0,0,1,8.4-4.1,39.72,39.72,0,0,1,10.7-1.3,44.79,44.79,0,0,1,8.9.9,21.7,21.7,0,0,1,8,3.2,17.79,17.79,0,0,1,5.8,6.6c1.5,2.8,2.2,6.5,2.2,11.1V98.3c0,3.3,1.6,5,4.8,5a7.08,7.08,0,0,0,2.6-.5v6.9c-1,.2-1.8.3-2.6.4a22.68,22.68,0,0,1-2.8.1,13.37,13.37,0,0,1-5-.8,7,7,0,0,1-2.9-2.4,8.67,8.67,0,0,1-1.4-3.7,34.25,34.25,0,0,1-.3-4.8h-.3a58.57,58.57,0,0,1-4.5,5.8,23.29,23.29,0,0,1-5.1,4.3,24.52,24.52,0,0,1-6.4,2.6,36,36,0,0,1-8.6.9,35.34,35.34,0,0,1-8.8-1.1,18.63,18.63,0,0,1-7.2-3.5,16.46,16.46,0,0,1-4.8-6.2,20,20,0,0,1-1.8-8.8c0-4.7,1-8.4,3.1-11.1a19.79,19.79,0,0,1,8.3-6.1,43.59,43.59,0,0,1,11.7-2.9c4.3-.6,8.7-1.1,13.2-1.6a45.24,45.24,0,0,0,4.6-.7,8.25,8.25,0,0,0,3.3-1.4,6.19,6.19,0,0,0,2-2.7,11.17,11.17,0,0,0,.7-4.5,15.38,15.38,0,0,0-1.4-6.9,11.29,11.29,0,0,0-3.8-4.3,16.4,16.4,0,0,0-5.6-2.2,36.94,36.94,0,0,0-6.9-.6c-5.2,0-9.5,1.2-12.8,3.7s-5.1,6.5-5.2,12h-8.2A26.33,26.33,0,0,1,479,53.1Zm41.3,20.2a4.36,4.36,0,0,1-3,2.1q-2.25.6-3.9.9c-3.5.6-7.1,1.2-10.8,1.6a55.89,55.89,0,0,0-10.1,2.2,19.24,19.24,0,0,0-7.5,4.1c-2,1.8-2.9,4.3-2.9,7.7a12.78,12.78,0,0,0,1.2,5.6,13.36,13.36,0,0,0,3.3,4.2,14.19,14.19,0,0,0,4.8,2.7,17.74,17.74,0,0,0,5.6.9,29.73,29.73,0,0,0,9-1.4,22.81,22.81,0,0,0,7.5-4.2,21.29,21.29,0,0,0,5.1-6.7,19.72,19.72,0,0,0,1.9-8.9V73.3Z" transform="translate(-31.1 -16.7)"/><path class="cls-1" d="M553.6,16.7v93.5h-8.3V16.7Z" transform="translate(-31.1 -16.7)"/><path class="cls-1" d="M393.5,83.2a17.13,17.13,0,0,0-5.1-5.6,27.62,27.62,0,0,0-7.3-3.6,81.93,81.93,0,0,0-8.5-2.3l-8.1-1.8a44.92,44.92,0,0,1-7.3-2.2,17,17,0,0,1-5.3-3.2,6.51,6.51,0,0,1-2.1-4.9,6.82,6.82,0,0,1,1.4-4.4,10.58,10.58,0,0,1,3.5-2.7,16.87,16.87,0,0,1,4.8-1.4,31.15,31.15,0,0,1,5.2-.4,26,26,0,0,1,5.6.6,18.68,18.68,0,0,1,5.1,2,11.2,11.2,0,0,1,5.6,9.2l5.7,5.8,5.7-5.8s-1.1-7.8-2.7-10.6a18.45,18.45,0,0,0-6.2-6.8,25.13,25.13,0,0,0-8.9-3.5,53.52,53.52,0,0,0-11-1,42.18,42.18,0,0,0-9.3,1.1,28.65,28.65,0,0,0-8.4,3.5,19,19,0,0,0-6.1,6.2,16.45,16.45,0,0,0-2.4,9.1c0,4.5,1.1,8,3.4,10.6a23.59,23.59,0,0,0,8.5,5.9,54,54,0,0,0,11,3.2c4,.8,7.6,1.6,11,2.6a29,29,0,0,1,8.5,3.7,7.57,7.57,0,0,1,3.4,6.8,8.17,8.17,0,0,1-1.6,5.3,10.65,10.65,0,0,1-4.1,3.2,23.38,23.38,0,0,1-5.5,1.5,38.17,38.17,0,0,1-5.7.4,30.78,30.78,0,0,1-6.8-.7,22.52,22.52,0,0,1-6-2.2,11.54,11.54,0,0,1-4.3-4.2,13,13,0,0,1-1.8-6.4h0l-5.7-5.7L336,90.2h0a25.83,25.83,0,0,0,2.7,11,20,20,0,0,0,6.5,7.3,27.88,27.88,0,0,0,9.3,4,49.7,49.7,0,0,0,11.1,1.2,54.35,54.35,0,0,0,10.6-1,29,29,0,0,0,9.6-3.6,21.34,21.34,0,0,0,6.9-6.8c1.8-2.8,2.6-6.3,2.6-10.6A14.72,14.72,0,0,0,393.5,83.2Z" transform="translate(-31.1 -16.7)"/><path class="cls-1" d="M65.9,16.7A34.83,34.83,0,0,0,31.1,51.5v58.8H49.7v-24H65.9a34.8,34.8,0,1,0,0-69.6Zm1,50.9H49.8V51.5A16.2,16.2,0,1,1,66.9,67.6Z" transform="translate(-31.1 -16.7)"/><g class="cls-2"><path class="cls-1" d="M423.38,146.15h-1.64a5.12,5.12,0,0,0-1.89-3,5.39,5.39,0,0,0-3.38-1.12,5.8,5.8,0,0,0-4.93,2.35,9.54,9.54,0,0,0,0,10.36,5.76,5.76,0,0,0,5,2.38,5,5,0,0,0,3.83-1.61,6.46,6.46,0,0,0,1.68-3.88h1.64a7.88,7.88,0,0,1-2.25,5,6.76,6.76,0,0,1-4.9,1.85,7.43,7.43,0,0,1-6.09-2.72,9.46,9.46,0,0,1-2-6.22,9.58,9.58,0,0,1,2-6.22A8,8,0,0,1,421,142,5.73,5.73,0,0,1,423.38,146.15Z" transform="translate(-31.1 -16.7)"/><path class="cls-1" d="M425.21,149.53a9.58,9.58,0,0,1,2-6.22,8.16,8.16,0,0,1,12.15,0,9.47,9.47,0,0,1,2,6.22,9.58,9.58,0,0,1-2,6.22,8.16,8.16,0,0,1-12.15,0A9.46,9.46,0,0,1,425.21,149.53Zm1.64,0a8.56,8.56,0,0,0,1.52,5.17,5.76,5.76,0,0,0,5,2.38,5.7,5.7,0,0,0,4.91-2.35,9.54,9.54,0,0,0,0-10.36,5.74,5.74,0,0,0-4.93-2.38,5.8,5.8,0,0,0-4.93,2.35A8.51,8.51,0,0,0,426.85,149.53Z" transform="translate(-31.1 -16.7)"/><path class="cls-1" d="M443.93,158.14V141h1.83l10,14.54,0-14.54h1.64v17.18h-1.82l-10-14.54,0,14.55Z" transform="translate(-31.1 -16.7)"/><path class="cls-1" d="M460,152.48h1.64a4.14,4.14,0,0,0,1.61,3.62,6.89,6.89,0,0,0,4,1,5.71,5.71,0,0,0,2.94-.79,3,3,0,0,0,1.61-2.68,2.57,2.57,0,0,0-1.16-2.13,7.29,7.29,0,0,0-2.38-1l-3.82-.94a6.2,6.2,0,0,1-2.69-1.25,3.69,3.69,0,0,1-1.18-2.89,4.42,4.42,0,0,1,1.13-3,6,6,0,0,1,4.79-1.81,7.17,7.17,0,0,1,4.45,1.35,4.78,4.78,0,0,1,1.9,4h-1.64a3.43,3.43,0,0,0-1.37-2.92,5.4,5.4,0,0,0-3.32-1,5.27,5.27,0,0,0-3,.75,3,3,0,0,0-1.32,2.67,2.3,2.3,0,0,0,.77,1.78,4.63,4.63,0,0,0,1.83.84l4.19,1a7.7,7.7,0,0,1,3.13,1.44,3.83,3.83,0,0,1,1.32,3.07,4.39,4.39,0,0,1-1,2.88q-1.64,2-5.58,2a7.77,7.77,0,0,1-5-1.41A5.53,5.53,0,0,1,460,152.48Z" transform="translate(-31.1 -16.7)"/><path class="cls-1" d="M475.89,151.94V141h1.64v10.62a5.87,5.87,0,0,0,1.32,4.25,6.12,6.12,0,0,0,7.41,0,5.91,5.91,0,0,0,1.35-4.25V141h1.64v11a6.69,6.69,0,1,1-13.36,0Z" transform="translate(-31.1 -16.7)"/><path class="cls-1" d="M492.54,158.14V141h1.64v15.79h9.63v1.4Z" transform="translate(-31.1 -16.7)"/><path class="cls-1" d="M501.4,142.35V141H515v1.4h-6v15.79h-1.64V142.35Z" transform="translate(-31.1 -16.7)"/><path class="cls-1" d="M516.75,158.14V141h1.64v17.18Z" transform="translate(-31.1 -16.7)"/><path class="cls-1" d="M521.95,158.14V141h1.83l10,14.54,0-14.54h1.64v17.18h-1.82l-10-14.54,0,14.55Z" transform="translate(-31.1 -16.7)"/><path class="cls-1" d="M553.59,149.38v8.76h-1.22l-.22-3.13a5.84,5.84,0,0,1-2.49,2.65,7.24,7.24,0,0,1-3.48.81,7.39,7.39,0,0,1-6.07-2.72,9.48,9.48,0,0,1-2-6.22,9.58,9.58,0,0,1,2-6.22,7.43,7.43,0,0,1,6.09-2.71,7.65,7.65,0,0,1,4.73,1.47,6.42,6.42,0,0,1,2.44,4.21h-1.64a4.2,4.2,0,0,0-1.61-2.87,6.26,6.26,0,0,0-8.86.94,9.54,9.54,0,0,0,0,10.36,5.76,5.76,0,0,0,5,2.38,5.61,5.61,0,0,0,4.36-1.73,6.5,6.5,0,0,0,1.59-4.57H546.3v-1.4Z" transform="translate(-31.1 -16.7)"/></g><line class="cls-3" x1="378.4" y1="108.7" x2="522.5" y2="108.7"/></svg>